<svg xmlns="http://www.w3.org/2000/svg" viewBox="0 0 11.613 19.43">
  <defs>
    <style>
      .cls-1 {
        fill: none;
        stroke: #0e2a77;
        stroke-miterlimit: 10;
        stroke-width: 0.8px;
      }
    </style>
  </defs>
  <g id="Group_116" data-name="Group 116" transform="translate(-1.6 -1.6)">
    <path id="Path_828" data-name="Path 828" class="cls-1" d="M12.813,8V3.025A1.019,1.019,0,0,0,11.787,2h-2.8A1.585,1.585,0,1,1,5.822,2h-2.8A1.019,1.019,0,0,0,2,3.025V8.012a.743.743,0,0,1,.746.746A.724.724,0,0,1,2,9.48V19.605a1.027,1.027,0,0,0,1.025,1.025h2.8a1.585,1.585,0,0,1,3.169,0h2.8a1.027,1.027,0,0,0,1.025-1.025V9.48a.743.743,0,0,1-.746-.746A.734.734,0,0,1,12.813,8Z"/>
    <g id="Group_105" data-name="Group 105" transform="translate(3.771 9.422)">
      <line id="Line_23" data-name="Line 23" class="cls-1" x2="7.317" transform="translate(0 0)"/>
      <line id="Line_24" data-name="Line 24" class="cls-1" x2="7.317" transform="translate(0 3.787)"/>
    </g>
  </g>
</svg>
